<svg width="121" height="34" viewBox="0 0 121 34" fill="none" xmlns="http://www.w3.org/2000/svg">
<circle cx="14" cy="17" r="14" fill="#0E1125"/>
<path d="M6.20508 12.5L21.7949 12.5L14 26.001L6.20508 12.5Z" stroke="white"/>
<path d="M7 13L14 17.5L21.5 13" stroke="white" stroke-linecap="round"/>
<path d="M14 17.5V25.5" stroke="white" stroke-linecap="round"/>
<path d="M45.1952 24V18.6867H39.7952V24H37.2145V11.6169H39.7952V16.5398H45.1952V11.6169H47.7759V24H45.1952ZM52.4384 24.1735C51.5131 24.1735 50.7902 23.9277 50.2698 23.4361C49.7637 22.9301 49.5107 22.2217 49.5107 21.3108C49.5107 20.3277 49.8288 19.5831 50.4649 19.0771C51.1155 18.5566 52.0481 18.2892 53.2625 18.2747L55.3228 18.2313V17.7542C55.3228 17.1325 55.2143 16.6699 54.9975 16.3663C54.7806 16.0627 54.4264 15.9108 53.9348 15.9108C53.4722 15.9108 53.1324 16.0193 52.9155 16.2361C52.7131 16.4386 52.583 16.7783 52.5252 17.2554L49.9445 17.1253C50.1035 16.2 50.5228 15.4988 51.2023 15.0217C51.8963 14.5446 52.8432 14.306 54.0432 14.306C55.2432 14.306 56.1685 14.6024 56.8192 15.1952C57.4698 15.788 57.7951 16.6337 57.7951 17.7325V21.1807C57.7951 21.7157 57.8529 22.0843 57.9685 22.2867C58.0842 22.4892 58.2866 22.5904 58.5758 22.5904C58.7637 22.5904 58.9445 22.5759 59.1179 22.547V23.8699C58.9734 23.8988 58.8432 23.9349 58.7276 23.9783C58.6119 24.0072 58.489 24.0289 58.3589 24.0434C58.2432 24.0578 58.1204 24.0723 57.9902 24.0867C57.8601 24.1012 57.7083 24.1084 57.5348 24.1084C56.9131 24.1084 56.4505 23.9566 56.1469 23.653C55.8577 23.3494 55.6842 22.9012 55.6264 22.3084H55.583C54.8746 23.5518 53.8264 24.1735 52.4384 24.1735ZM55.3228 19.5976L54.0432 19.6193C53.4649 19.6482 53.0529 19.7133 52.8071 19.8145C52.5758 19.9157 52.3951 20.0747 52.2649 20.2916C52.1493 20.494 52.0914 20.7687 52.0914 21.1157C52.0914 21.5639 52.1926 21.9036 52.3951 22.1349C52.6119 22.3518 52.8938 22.4602 53.2408 22.4602C53.6312 22.4602 53.9854 22.3518 54.3035 22.1349C54.6216 21.9181 54.8673 21.6289 55.0408 21.2675C55.2288 20.8916 55.3228 20.494 55.3228 20.0747V19.5976ZM60.25 24V10.9663H62.7223V24H60.25ZM67.4326 24.1735C66.5073 24.1735 65.7844 23.9277 65.2639 23.4361C64.7579 22.9301 64.5049 22.2217 64.5049 21.3108C64.5049 20.3277 64.8229 19.5831 65.4591 19.0771C66.1097 18.5566 67.0422 18.2892 68.2567 18.2747L70.3169 18.2313V17.7542C70.3169 17.1325 70.2085 16.6699 69.9916 16.3663C69.7747 16.0627 69.4205 15.9108 68.929 15.9108C68.4663 15.9108 68.1265 16.0193 67.9097 16.2361C67.7073 16.4386 67.5771 16.7783 67.5193 17.2554L64.9386 17.1253C65.0976 16.2 65.5169 15.4988 66.1964 15.0217C66.8904 14.5446 67.8374 14.306 69.0374 14.306C70.2374 14.306 71.1627 14.6024 71.8133 15.1952C72.4639 15.788 72.7892 16.6337 72.7892 17.7325V21.1807C72.7892 21.7157 72.847 22.0843 72.9627 22.2867C73.0784 22.4892 73.2808 22.5904 73.5699 22.5904C73.7579 22.5904 73.9386 22.5759 74.1121 22.547V23.8699C73.9675 23.8988 73.8374 23.9349 73.7217 23.9783C73.6061 24.0072 73.4832 24.0289 73.353 24.0434C73.2374 24.0578 73.1145 24.0723 72.9844 24.0867C72.8543 24.1012 72.7024 24.1084 72.529 24.1084C71.9073 24.1084 71.4446 23.9566 71.141 23.653C70.8518 23.3494 70.6784 22.9012 70.6205 22.3084H70.5771C69.8687 23.5518 68.8205 24.1735 67.4326 24.1735ZM70.3169 19.5976L69.0374 19.6193C68.4591 19.6482 68.047 19.7133 67.8012 19.8145C67.5699 19.9157 67.3892 20.0747 67.2591 20.2916C67.1434 20.494 67.0856 20.7687 67.0856 21.1157C67.0856 21.5639 67.1868 21.9036 67.3892 22.1349C67.6061 22.3518 67.888 22.4602 68.235 22.4602C68.6253 22.4602 68.9796 22.3518 69.2976 22.1349C69.6157 21.9181 69.8615 21.6289 70.035 21.2675C70.2229 20.8916 70.3169 20.494 70.3169 20.0747V19.5976ZM75.2442 24V10.9663H77.7164V24H75.2442ZM78.805 26.1904V25.5181H89.1496V26.1904H78.805ZM90.1949 24V11.6169H92.7756V22.0048H99.4118V24H90.1949ZM103.397 24.1735C102.472 24.1735 101.749 23.9277 101.229 23.4361C100.723 22.9301 100.47 22.2217 100.47 21.3108C100.47 20.3277 100.788 19.5831 101.424 19.0771C102.075 18.5566 103.007 18.2892 104.222 18.2747L106.282 18.2313V17.7542C106.282 17.1325 106.173 16.6699 105.956 16.3663C105.74 16.0627 105.385 15.9108 104.894 15.9108C104.431 15.9108 104.091 16.0193 103.875 16.2361C103.672 16.4386 103.542 16.7783 103.484 17.2554L100.903 17.1253C101.062 16.2 101.482 15.4988 102.161 15.0217C102.855 14.5446 103.802 14.306 105.002 14.306C106.202 14.306 107.128 14.6024 107.778 15.1952C108.429 15.788 108.754 16.6337 108.754 17.7325V21.1807C108.754 21.7157 108.812 22.0843 108.928 22.2867C109.043 22.4892 109.246 22.5904 109.535 22.5904C109.723 22.5904 109.903 22.5759 110.077 22.547V23.8699C109.932 23.8988 109.802 23.9349 109.687 23.9783C109.571 24.0072 109.448 24.0289 109.318 24.0434C109.202 24.0578 109.079 24.0723 108.949 24.0867C108.819 24.1012 108.667 24.1084 108.494 24.1084C107.872 24.1084 107.409 23.9566 107.106 23.653C106.817 23.3494 106.643 22.9012 106.585 22.3084H106.542C105.834 23.5518 104.785 24.1735 103.397 24.1735ZM106.282 19.5976L105.002 19.6193C104.424 19.6482 104.012 19.7133 103.766 19.8145C103.535 19.9157 103.354 20.0747 103.224 20.2916C103.108 20.494 103.05 20.7687 103.05 21.1157C103.05 21.5639 103.152 21.9036 103.354 22.1349C103.571 22.3518 103.853 22.4602 104.2 22.4602C104.59 22.4602 104.944 22.3518 105.262 22.1349C105.581 21.9181 105.826 21.6289 106 21.2675C106.188 20.8916 106.282 20.494 106.282 20.0747V19.5976ZM120.209 19.2072C120.209 20.7831 119.891 22.0048 119.255 22.8723C118.633 23.7398 117.737 24.1735 116.566 24.1735C115.886 24.1735 115.301 24.0289 114.809 23.7398C114.317 23.4506 113.942 23.0241 113.681 22.4602H113.66C113.66 22.6627 113.645 22.9446 113.616 23.306C113.587 23.6675 113.558 23.8988 113.529 24H111.144C111.187 23.4506 111.209 22.7277 111.209 21.8313V10.9663H113.681V14.588L113.638 16.1494H113.681C114.245 14.9349 115.257 14.3205 116.717 14.306C117.845 14.306 118.705 14.7325 119.298 15.5855C119.905 16.4386 120.209 17.6458 120.209 19.2072ZM117.628 19.2072C117.628 18.1229 117.469 17.3205 117.151 16.8C116.833 16.2795 116.349 16.0193 115.698 16.0193C115.033 16.0193 114.52 16.3012 114.158 16.8651C113.811 17.4289 113.638 18.2386 113.638 19.294C113.638 20.306 113.811 21.094 114.158 21.6578C114.505 22.2072 115.011 22.4819 115.676 22.4819C116.978 22.4819 117.628 21.3904 117.628 19.2072Z" fill="#0E1125"/>
</svg>
